<svg xmlns="http://www.w3.org/2000/svg" width="10.715" height="10.63" viewBox="0 0 10.715 10.63">
  <g id="ico_objeto_digital" transform="translate(-635 -748.37)">
    <path id="Caminho_278" data-name="Caminho 278" d="M.5-.5h9.715v-9.63H.5Z" transform="translate(635 759)" fill="none" stroke="#097f3e" stroke-width="1"/>
    <g id="Grupo_769" data-name="Grupo 769" transform="translate(639.773 750.533)">
      <path id="Caminho_279" data-name="Caminho 279" d="M0,0A5.126,5.126,0,0,0-2.9,1.356a.741.741,0,0,0-.3.4.417.417,0,0,0,.732.359,4.251,4.251,0,0,1,.394-.343A4.7,4.7,0,0,1-1.2,1.226,4.286,4.286,0,0,1,3.59,2.02a.616.616,0,0,0,.487.249.4.4,0,0,0,.36-.359C4.523,1.214,2.156-.292,0,0" fill="#097f3e"/>
    </g>
    <g id="Grupo_770" data-name="Grupo 770" transform="translate(640.086 752.304)">
      <path id="Caminho_280" data-name="Caminho 280" d="M0,0A3.691,3.691,0,0,0-1.648.52c-.316.185-1.2.7-.871,1.191.231.344.512.156.72-.019A3.02,3.02,0,0,1,2.173,1.5c.2.14.369.449.692.388A.435.435,0,0,0,3.1,1.2,3.62,3.62,0,0,0,1.832.3,3.823,3.823,0,0,0,0,0" fill="#097f3e"/>
    </g>
    <g id="Grupo_771" data-name="Grupo 771" transform="translate(639.976 754.054)">
      <path id="Caminho_281" data-name="Caminho 281" d="M0,0C-.532.1-1.933.707-1.389,1.311c.339.377.711-.111.972-.259A1.668,1.668,0,0,1,1.3,1.086c.27.166.271.259.42.321C2.289,1.646,2.874.7,1.264.11A2.431,2.431,0,0,0,0,0" fill="#097f3e"/>
    </g>
    <g id="Grupo_772" data-name="Grupo 772" transform="translate(640.384 757.157)">
      <path id="Caminho_282" data-name="Caminho 282" d="M0,0A.682.682,0,0,0,.668-.693.683.683,0,0,0,0-1.386a.683.683,0,0,0-.668.693A.682.682,0,0,0,0,0" fill="#097f3e"/>
    </g>
  </g>
</svg>
