<svg xmlns="http://www.w3.org/2000/svg" xmlns:xlink="http://www.w3.org/1999/xlink" width="109.7" height="153.819" viewBox="0 0 109.7 153.819">
  <defs>
    <clipPath id="clip-path">
      <path id="Caminho_59" data-name="Caminho 59" d="M0,0H109.7V-153.819H0Z" fill="none"/>
    </clipPath>
  </defs>
  <g id="img_simula" transform="translate(0 153.819)">
    <g id="Grupo_130" data-name="Grupo 130" clip-path="url(#clip-path)">
      <g id="Grupo_128" data-name="Grupo 128" transform="translate(3.855 -152.694)">
        <path id="Caminho_57" data-name="Caminho 57" d="M0,0A2.73,2.73,0,0,0-2.73,2.73V151.569H101.99a2.73,2.73,0,0,0,2.73-2.73V2.73A2.73,2.73,0,0,0,101.99,0Z" fill="#d8d8da"/>
      </g>
      <g id="Grupo_129" data-name="Grupo 129" transform="translate(3.855 -152.694)">
        <path id="Caminho_58" data-name="Caminho 58" d="M0,0A2.73,2.73,0,0,0-2.73,2.73V151.569H101.99a2.73,2.73,0,0,0,2.73-2.73V2.73A2.73,2.73,0,0,0,101.99,0Z" fill="none" stroke="#fff" stroke-width="2.25"/>
      </g>
    </g>
  </g>
</svg>
