<svg xmlns="http://www.w3.org/2000/svg" width="92.972" height="70.544" viewBox="0 0 92.972 70.544">
  <g id="img_balaoponteira" transform="translate(-1266 -805.544)">
    <path id="Caminho_68" data-name="Caminho 68" d="M0,0C-11.975,0-21.683-8.494-21.683-18.973S-11.975-37.946,0-37.946s21.683,8.495,21.683,18.973S11.975,0,0,0" transform="translate(1287.683 859.789)" fill="#ffdbb7"/>
    <path id="Caminho_69" data-name="Caminho 69" d="M3.3.357c-13.8,0-24.986-8.574-24.986-19.151S-10.5-37.946,3.3-37.946s24.986,8.575,24.986,19.151S17.1.357,3.3.357" transform="translate(1330.683 859.432)" fill="#ffdbb7"/>
    <path id="Caminho_70" data-name="Caminho 70" d="M0,0C-11.975,0-21.683-8.494-21.683-18.973S-11.975-37.946,0-37.946s21.683,8.495,21.683,18.973S11.975,0,0,0" transform="translate(1299.73 876.088)" fill="#ffdbb7"/>
    <path id="Caminho_71" data-name="Caminho 71" d="M0,0C-11.975,0-21.683-8.494-21.683-18.973S-11.975-37.946,0-37.946s21.683,8.495,21.683,18.973S11.975,0,0,0" transform="translate(1299.73 843.49)" fill="#ffdbb7"/>
    <path id="Caminho_72" data-name="Caminho 72" d="M0,0C-11.975,0-21.683-8.494-21.683-18.973S-11.975-37.946,0-37.946s21.683,8.495,21.683,18.973S11.975,0,0,0" transform="translate(1325.242 876.088)" fill="#ffdbb7"/>
    <path id="Caminho_73" data-name="Caminho 73" d="M0,0C-11.975,0-21.683-8.494-21.683-18.973S-11.975-37.946,0-37.946s21.683,8.495,21.683,18.973S11.975,0,0,0" transform="translate(1325.242 843.49)" fill="#ffdbb7"/>
    <path id="Caminho_74" data-name="Caminho 74" d="M0,0H92.971V-70.544H0Z" transform="translate(1266 876.088)" fill="none"/>
  </g>
</svg>
