<svg xmlns="http://www.w3.org/2000/svg" xmlns:xlink="http://www.w3.org/1999/xlink" width="20.362" height="21.305" viewBox="0 0 20.362 21.305">
  <defs>
    <clipPath id="clip-path">
      <path id="Caminho_78" data-name="Caminho 78" d="M0,0H20.362V-21.305H0Z" fill="none"/>
    </clipPath>
  </defs>
  <g id="img_balaopnteiradir" transform="translate(0 21.305)">
    <g id="Grupo_145" data-name="Grupo 145" clip-path="url(#clip-path)">
      <g id="Grupo_142" data-name="Grupo 142" transform="translate(9.187 -19.389)">
        <path id="Caminho_75" data-name="Caminho 75" d="M0,0A5.168,5.168,0,0,1-.764,7.27a5.169,5.169,0,0,1-7.271-.764A5.169,5.169,0,0,1-7.27-.764,5.168,5.168,0,0,1,0,0" fill="#ffdbb7"/>
      </g>
      <g id="Grupo_143" data-name="Grupo 143" transform="translate(18.853 -13.082)">
        <path id="Caminho_76" data-name="Caminho 76" d="M0,0A3.4,3.4,0,0,1-.5,4.779a3.4,3.4,0,0,1-4.779-.5A3.4,3.4,0,0,1-4.779-.5,3.4,3.4,0,0,1,0,0" fill="#ffdbb7"/>
      </g>
      <g id="Grupo_144" data-name="Grupo 144" transform="translate(19.787 -3.714)">
        <path id="Caminho_77" data-name="Caminho 77" d="M0,0A2.311,2.311,0,0,1-.2,3.257a2.312,2.312,0,0,1-3.226-.485,2.312,2.312,0,0,1,.2-3.257A2.313,2.313,0,0,1,0,0" fill="#ffdbb7"/>
      </g>
    </g>
  </g>
</svg>
