<svg xmlns="http://www.w3.org/2000/svg" width="24.837" height="17.524" viewBox="0 0 24.837 17.524">
  <g id="pv_instrumentossoft" transform="translate(-1454.52 -99.814)">
    <path id="Caminho_30" data-name="Caminho 30" d="M127.6,68.335a2,2,0,0,0,2,2h4.661a2.1,2.1,0,0,0,2.1-2.1V63.579a2,2,0,0,0-2-2H129.6a2,2,0,0,0-2,2Z" transform="translate(1343 47)" fill="#d4c0de"/>
    <path id="Caminho_32" data-name="Caminho 32" d="M127.6,59.573V54.817a2,2,0,0,0-2-2h-4.756a2,2,0,0,0-2,2v6.759h6.759a2,2,0,0,0,2-2" transform="translate(1343 47)" fill="#a8c8ea"/>
    <path id="Caminho_34" data-name="Caminho 34" d="M111.52,66.886a2,2,0,0,0,2,2h3.246a2,2,0,0,0,2-2V61.637h-5.249a2,2,0,0,0-2,2Z" transform="translate(1343 47)" fill="#a0d9de"/>
  </g>
</svg>
