<svg xmlns="http://www.w3.org/2000/svg" xmlns:xlink="http://www.w3.org/1999/xlink" width="58.875" height="51.838" viewBox="0 0 58.875 51.838">
  <defs>
    <clipPath id="clip-path">
      <path id="Caminho_87" data-name="Caminho 87" d="M0,0H58.875V-51.838H0Z" fill="none"/>
    </clipPath>
  </defs>
  <g id="pv_modelo_table" transform="translate(0 51.838)">
    <g id="Grupo_157" data-name="Grupo 157" clip-path="url(#clip-path)">
      <g id="Grupo_152" data-name="Grupo 152" transform="translate(47.157 -44.597)">
        <path id="Caminho_82" data-name="Caminho 82" d="M0,0A25.655,25.655,0,0,0-30.018-3.758,25.656,25.656,0,0,0-42.738,23.69l11.464-6.355A13.743,13.743,0,0,1-24.252,6.644a13.745,13.745,0,0,1,12.788-.29ZM-35.584,36.939a25.65,25.65,0,0,0,30.44,4.176A25.652,25.652,0,0,0,7.445,13.088L-3.847,19.347A13.743,13.743,0,0,1-10.91,30.713a13.745,13.745,0,0,1-13.382-.033Z" fill="none" stroke="#6f7175" stroke-width="0.529"/>
      </g>
      <g id="Grupo_153" data-name="Grupo 153" transform="translate(0.526 -18.749)">
        <path id="Caminho_83" data-name="Caminho 83" d="M0,0,7.3,13.168,57.823-14.837l-7.3-13.169Z" fill="none" stroke="#6f7175" stroke-width="0.774"/>
      </g>
      <g id="Grupo_154" data-name="Grupo 154" transform="translate(17.653 -16.998)">
        <path id="Caminho_84" data-name="Caminho 84" d="M0,0-.454.252l.434.784L2.05-.111,1.615-.895l-.538.3L-1.04-4.415l.562-.312-.435-.784L-2.867-4.428l.6,4.044A3.834,3.834,0,0,0-2,.727l-.015.009A2.8,2.8,0,0,0-2.638.124l-3.37-2.811-1.977,1.1.435.785.561-.312L-4.872,2.7l-.469.26.434.784L-3,2.687-3.434,1.9-4,2.215-5.745-.942-5.73-.95a3.481,3.481,0,0,0,.608.589L-2.083,2.18-1,1.582-1.55-2.271a3.362,3.362,0,0,0-.185-.823L-1.72-3.1ZM1.628-3.4a2.862,2.862,0,0,0,4.207,1.31A2.862,2.862,0,0,0,6.953-6.35,2.857,2.857,0,0,0,2.746-7.66,3,3,0,0,0,1.628-3.4m1.215-.674c-.576-1.039-.627-2.148.389-2.711s1.93.067,2.506,1.107.673,2.122-.389,2.711-1.93-.067-2.506-1.107m6.839-1.3-.577.32.435.784,2.577-1.429a3.015,3.015,0,0,0,1.268-4.374c-.939-1.694-2.513-1.977-4.315-.978L6.554-9.65l.434.784.578-.32Zm1.123-.622L8.688-9.808l.64-.354a1.882,1.882,0,0,1,2.859.8,2.015,2.015,0,0,1-.727,3.01Zm7.8-4.323-1.341.743-.87-1.571,1.355-.751-.46-.83-1.356.751-.785-1.417,1.317-.73.49.775.923-.511-.925-1.56-3.94,2.184.435.784.577-.32L16.14-8.946l-.485.268.434.784,3.871-2.145-.877-1.727-.923.512Zm5.21-2.888-1.325.734-2.116-3.818.485-.269-.435-.784-2.093,1.16.435.784.485-.269,2.117,3.819-.485.269.434.784,3.848-2.133-.891-1.789-.931.516Zm.951-3.023a2.86,2.86,0,0,0,4.206,1.31,2.862,2.862,0,0,0,1.119-4.261,2.856,2.856,0,0,0-4.207-1.31,3,3,0,0,0-1.118,4.261m1.215-.673c-.576-1.039-.627-2.148.389-2.712s1.93.068,2.506,1.107.673,2.123-.39,2.712-1.929-.068-2.5-1.107" fill="#6f7175"/>
      </g>
      <g id="Grupo_155" data-name="Grupo 155" transform="translate(14.845 -36.109)">
        <path id="Caminho_85" data-name="Caminho 85" d="M0,0-.158.269.307.542l.72-1.227L.562-.958l-.187.32L-1.89-1.967l.2-.333-.465-.273-.68,1.159L-1.29.5A2.311,2.311,0,0,0-.814.989l0,.009A1.683,1.683,0,0,0-1.328.872l-2.6-.424L-4.62,1.621l.465.273.2-.333L-1.7,2.889l-.163.278.465.273L-.73,2.309-1.2,2.036l-.195.333-1.872-1.1.006-.009a2.078,2.078,0,0,0,.5.119l2.35.385.375-.64L-1.5-.7a2.023,2.023,0,0,0-.348-.369l0-.009ZM-.006-2.288a1.721,1.721,0,0,0,2.646.145,1.721,1.721,0,0,0,.025-2.649A1.719,1.719,0,0,0,.019-4.937,1.8,1.8,0,0,0-.006-2.288M.6-2.859C.115-3.38-.078-4.019.432-4.5s1.135-.245,1.623.276.7,1.139.172,1.639S1.092-2.338.6-2.859m3.634-1.47L3.9-4.118l.285.457,1.5-.94a1.814,1.814,0,0,0,.623-2.667,1.71,1.71,0,0,0-2.622-.451L2.224-6.8l.286.457.336-.211Zm.655-.409L3.5-6.964,3.873-7.2a1.133,1.133,0,0,1,1.743.39,1.211,1.211,0,0,1-.342,1.83ZM9.431-6.91l-.862.325L8.188-7.6l.872-.328-.2-.535-.872.329-.343-.912.847-.319.224.5.594-.223L8.9-10.089,6.36-9.135l.19.5.372-.139.924,2.457L7.534-6.2l.19.505,2.491-.938-.371-1.1-.593.224Zm3.2-.656-.9.144-.413-2.593.33-.052-.085-.533-1.421.227.085.532.329-.053L10.971-7.3l-.329.052.085.533,2.612-.416L13.2-8.326l-.632.1Zm1.121-1.481A1.721,1.721,0,0,0,15.5-7.054a1.72,1.72,0,0,0,1.912-1.834,1.718,1.718,0,0,0-1.745-1.993,1.8,1.8,0,0,0-1.913,1.834m.835.036c.031-.714.353-1.3,1.051-1.268s.968.641.937,1.355-.321,1.3-1.051,1.268-.968-.641-.937-1.355" fill="#6f7175"/>
      </g>
      <g id="Grupo_156" data-name="Grupo 156" transform="translate(30.608 -5.829)">
        <path id="Caminho_86" data-name="Caminho 86" d="M0,0H-.312l0,.539,1.423,0,0-.539L.74,0,.749-2.623h.386l0-.539-1.344,0-.87,2.3A2.287,2.287,0,0,0-1.264-.2h-.011a1.685,1.685,0,0,0-.146-.5l-.945-2.463-1.36,0v.539h.386L-3.35-.011h-.322l0,.539,1.312,0V-.008h-.386l.007-2.17h.011a2.082,2.082,0,0,0,.146.488L-1.732.533l.741,0,.843-2.183A1.945,1.945,0,0,0,0-2.133H.007ZM1.846-1.371A1.721,1.721,0,0,0,4.072.065a1.722,1.722,0,0,0,1.334-2.29A1.718,1.718,0,0,0,3.179-3.66,1.8,1.8,0,0,0,1.846-1.371m.812-.195c-.167-.695-.018-1.345.661-1.508s1.108.349,1.274,1.044S4.642-.692,3.932-.521,2.825-.871,2.658-1.566m4.419.121-.352.183.249.479L8.546-1.6a1.813,1.813,0,0,0,.833-2.609A1.709,1.709,0,0,0,6.8-4.867l-1.535.8.249.478.352-.183ZM7.762-1.8,6.552-4.13l.39-.2a1.132,1.132,0,0,1,1.706.528,1.211,1.211,0,0,1-.486,1.8Zm4.717-3.076-.686.616-.721-.8.693-.623-.381-.425-.694.623-.651-.725.674-.6.392.389.472-.424-.752-.79L8.81-5.835l.36.4.3-.266,1.754,1.954-.249.223.361.4L13.311-4.9l-.746-.9-.472.424ZM15.16-7.73l-.576.706L12.55-8.685l.211-.258-.417-.341-.91,1.115.417.341.211-.259L14.1-6.426l-.211.258.418.341,1.672-2.049-.9-.8-.405.5Zm-.136-1.959a1.721,1.721,0,0,0,2.543-.743,1.721,1.721,0,0,0-.858-2.507,1.717,1.717,0,0,0-2.542.743,1.8,1.8,0,0,0,.857,2.507m.385-.742c-.635-.329-1.029-.867-.707-1.487s.989-.608,1.623-.279,1.043.839.707,1.487-.989.608-1.623.279" fill="#6f7175"/>
      </g>
    </g>
  </g>
</svg>
