<svg xmlns="http://www.w3.org/2000/svg" xmlns:xlink="http://www.w3.org/1999/xlink" width="37.695" height="28.527" viewBox="0 0 37.695 28.527">
  <defs>
    <clipPath id="clip-path">
      <rect id="Retângulo_46" data-name="Retângulo 46" width="37.695" height="28.527" transform="translate(0 0)" fill="none"/>
    </clipPath>
  </defs>
  <g id="pv_refs" transform="translate(0 0)">
    <g id="Grupo_78" data-name="Grupo 78" clip-path="url(#clip-path)">
      <path id="Caminho_46" data-name="Caminho 46" d="M2.086,5.094A2.085,2.085,0,0,0,0,7.18v5a2.086,2.086,0,0,0,2.086,2.087h5a2.086,2.086,0,0,0,2.086-2.087v-5A2.085,2.085,0,0,0,7.083,5.094ZM34.451,0H26.677a3.245,3.245,0,0,0-3.245,3.246V14.264H12.415a3.245,3.245,0,0,0-3.246,3.245v7.773a3.246,3.246,0,0,0,3.246,3.245h7.772a3.246,3.246,0,0,0,3.245-3.245V14.264H34.451a3.245,3.245,0,0,0,3.244-3.245V0Z" fill="#e8416a"/>
    </g>
  </g>
</svg>
