<svg xmlns="http://www.w3.org/2000/svg" xmlns:xlink="http://www.w3.org/1999/xlink" width="21.007" height="19.275" viewBox="0 0 21.007 19.275">
  <defs>
    <clipPath id="clip-path">
      <path id="Caminho_104" data-name="Caminho 104" d="M0,0H21.007V-19.275H0Z" fill="none"/>
    </clipPath>
  </defs>
  <g id="pv_titpeso2_mp" transform="translate(0 19.275)">
    <g id="Grupo_203" data-name="Grupo 203" clip-path="url(#clip-path)">
      <g id="Grupo_201" data-name="Grupo 201" transform="translate(17.795 0.866)">
        <path id="Caminho_102" data-name="Caminho 102" d="M0,0A3.212,3.212,0,0,0,3.212-3.212V-7.291A3.213,3.213,0,0,0,0-10.5H-7.291v7.292A3.211,3.211,0,0,0-4.08,0Z" fill="#00b2b0"/>
      </g>
      <g id="Grupo_202" data-name="Grupo 202" transform="translate(0 -16.929)">
        <path id="Caminho_103" data-name="Caminho 103" d="M0,0A3.212,3.212,0,0,1,3.212-3.212H7.291A3.213,3.213,0,0,1,10.5,0V7.291H3.212A3.211,3.211,0,0,1,0,4.08Z" fill="#66d2d4"/>
      </g>
    </g>
  </g>
</svg>
