<svg xmlns="http://www.w3.org/2000/svg" xmlns:xlink="http://www.w3.org/1999/xlink" width="37.695" height="28.527" viewBox="0 0 37.695 28.527">
  <defs>
    <clipPath id="clip-path">
      <rect id="Retângulo_130" data-name="Retângulo 130" width="37.695" height="28.527" transform="translate(0 0)" fill="none"/>
    </clipPath>
  </defs>
  <g id="pv_titresposta_mp" transform="translate(0 0)">
    <g id="Grupo_260" data-name="Grupo 260" clip-path="url(#clip-path)">
      <path id="Caminho_116" data-name="Caminho 116" d="M7.083,23.433A2.086,2.086,0,0,0,9.17,21.347v-5a2.087,2.087,0,0,0-2.087-2.087h-5A2.086,2.086,0,0,0,0,16.35v5a2.086,2.086,0,0,0,2.086,2.086Zm30.612,5.094V14.263H23.431V3.244A3.243,3.243,0,0,0,20.188,0H12.414A3.244,3.244,0,0,0,9.17,3.245v7.773a3.244,3.244,0,0,0,3.244,3.245H23.431V25.281a3.246,3.246,0,0,0,3.247,3.246H37.695Z" fill="#e8416a"/>
    </g>
  </g>
</svg>
